<?xml version="1.0" encoding="UTF-8" standalone="no"?>
<svg
   xmlns:dc="http://purl.org/dc/elements/1.1/"
   xmlns:cc="http://creativecommons.org/ns#"
   xmlns:rdf="http://www.w3.org/1999/02/22-rdf-syntax-ns#"
   xmlns:svg="http://www.w3.org/2000/svg"
   xmlns="http://www.w3.org/2000/svg"
   id="svg5"
   height="32px"
   width="32px"
   version="1.1"
   viewBox="0 0 32 32">
  <metadata
     id="metadata11">
    <rdf:RDF>
      <cc:Work
         rdf:about="">
        <dc:format>image/svg+xml</dc:format>
        <dc:type
           rdf:resource="http://purl.org/dc/dcmitype/StillImage" />
        <dc:title></dc:title>
      </cc:Work>
    </rdf:RDF>
  </metadata>
  <defs
     id="defs9" />
  <g
     style="stroke:none;stroke-opacity:1;fill:#ffffff;fill-opacity:1"
     id="surface1">
    <path
       id="path2"
       d="M 15 1.828125 L 15 8 L 9.539063 8 L 1.828125 17 L 8 17 L 8 22.457031 L 17 30.171875 L 17 24 L 22.460938 24 L 30.175781 15 L 24 15 L 24 9.539063 Z M 17 6.171875 L 22 10.457031 L 22 15 L 19.796875 15 C 19.425781 13.621094 18.378906 12.570313 17 12.203125 Z M 10.457031 10 L 15 10 L 15 12.203125 C 13.621094 12.570313 12.570313 13.621094 12.203125 15 L 6.171875 15 Z M 16 14 C 17.117188 14 17.996094 14.882813 18 15.996094 L 18 16.019531 C 17.984375 17.125 17.109375 17.996094 16.003906 18 L 15.980469 18 C 14.871094 17.984375 14 17.109375 14 16 C 14 14.882813 14.882813 14 16 14 Z M 10 17 L 12.203125 17 C 12.570313 18.378906 13.621094 19.429688 15 19.796875 L 15 25.828125 L 10 21.542969 Z M 19.796875 17 L 25.828125 17 L 21.542969 22 L 17 22 L 17 19.796875 C 18.378906 19.425781 19.429688 18.378906 19.796875 17 Z "
       style="stroke:none;stroke-opacity:1;fill:#ffffff;fill-opacity:1" />
  </g>
</svg>
